<?xml version="1.0" encoding="UTF-8"?>
<svg width="100px" height="100px" viewBox="0 0 100 100" version="1.1" xmlns="http://www.w3.org/2000/svg">
    <title>Ícone Educação</title>
    <g stroke="none" stroke-width="1" fill="none" fill-rule="evenodd">
        <!-- Livro aberto -->
        <path d="M10,30 L50,20 L90,30 L50,40 L10,30 Z" fill="#005F3C"/>
        <path d="M10,30 L10,70 L50,80 L50,40 L10,30 Z" fill="#A8D5BA"/>
        <path d="M90,30 L90,70 L50,80 L50,40 L90,30 Z" fill="#A8D5BA"/>
        <!-- Chapéu de formatura -->
        <path d="M50,15 L20,25 L50,35 L80,25 L50,15 Z" fill="#005F3C"/>
        <path d="M30,30 L30,50 L50,55 L70,50 L70,30" stroke="#005F3C" stroke-width="2"/>
        <rect x="45" y="5" width="10" height="10" fill="#005F3C"/>
        <rect x="47" y="0" width="6" height="5" fill="#005F3C"/>
    </g>
</svg>
