<?xml version="1.0" encoding="UTF-8"?>
<svg width="200px" height="80px" viewBox="0 0 200 80" version="1.1" xmlns="http://www.w3.org/2000/svg">
    <title>Escola Sementinha Logo</title>
    <g stroke="none" stroke-width="1" fill="none" fill-rule="evenodd">
        <g transform="translate(10, 10)">
            <!-- Semente -->
            <path d="M60,20 C60,8.954 51.046,0 40,0 C28.954,0 20,8.954 20,20 C20,31.046 28.954,40 40,40 C51.046,40 60,31.046 60,20 Z" fill="#A8D5BA"/>
            <path d="M40,5 C40,5 30,15 30,25 C30,35 40,35 40,35 C40,35 50,35 50,25 C50,15 40,5 40,5 Z" fill="#005F3C"/>
            
            <!-- Broto -->
            <path d="M40,40 C40,40 35,50 40,60 C45,50 40,40 40,40 Z" fill="#005F3C"/>
            <path d="M30,45 C30,45 25,55 35,65 C35,55 30,45 30,45 Z" fill="#005F3C"/>
            <path d="M50,45 C50,45 45,55 55,65 C55,55 50,45 50,45 Z" fill="#005F3C"/>
        </g>
        
        <!-- Texto -->
        <text font-family="Arial, sans-serif" font-size="18" font-weight="bold" fill="#005F3C" x="100" y="30" text-anchor="middle">ESCOLA</text>
        <text font-family="Arial, sans-serif" font-size="24" font-weight="bold" fill="#005F3C" x="100" y="55" text-anchor="middle">Sementinha</text>
    </g>
</svg>
